<?xml version="1.0" encoding="UTF-8"?>
<!-- Created with Inkscape (http://www.inkscape.org/) -->
<svg width="1435" height="1096" version="1.1" viewBox="0 0 1435 1096" xmlns="http://www.w3.org/2000/svg">
 <g>
  <path id="PC" d="m806.26 36.155c-3.2346 2.6128-5.5478 6.3334-6.5036 10.38s-0.55603 8.3944 1.0803 12.217c1.549 3.6185 4.12 6.6836 6.3272 9.9427 5.0479 7.4536 8.2958 16.308 8.1349 25.309-0.1843 10.309-4.7346 20.026-9.9427 28.924-3.8981 6.6604-8.2906 13.251-9.9427 20.789-1.7461 7.9676-0.26728 16.273-0.90387 24.405-0.26141 3.3393-0.87977 6.6435-1.123 9.9842s-0.0945 6.7807 1.123 9.9011c1.0614 2.7204 2.8783 5.0643 4.5337 7.47s3.2038 5.003 3.6012 7.896c0.25349 1.8454 0.0213 3.7377-0.51761 5.5208-0.53892 1.783-1.3784 3.4634-2.3429 5.0569-1.9291 3.187-4.3655 6.0531-6.1782 9.3076-4.0879 7.3392-4.7082 16.034-5.4233 24.405-0.32547 3.8099-0.68933 7.6286-0.55975 11.45 0.12959 3.8216 0.76949 7.6729 2.3675 11.147 2.3703 5.1526 6.7247 9.1855 11.574 12.126 4.8495 2.941 10.22 4.8959 15.542 6.855 6.0922 2.2424 12.18 4.5173 18.078 7.231 5.9906 2.7566 11.775 5.9617 17.87 8.4791 6.095 2.5174 12.596 4.3497 19.189 4.1752 9.5948-0.25402 18.562-4.6932 28.02-6.3271 8.6259-1.4902 17.463-0.61822 26.212-0.90388 3.8509-0.12573 7.7033-0.47666 11.551-0.2735 3.8476 0.20317 7.747 0.99477 11.046 2.9851 3.6722 2.2155 6.3695 5.7629 9.9427 8.1349 4.4594 2.9603 10.02 3.8883 15.366 3.6155 4.258-0.21728 8.4429-1.1434 12.654-1.8078 2.101-0.33145 4.2847-0.59342 6.3272 0 1.4274 0.41472 2.7171 1.2351 3.8005 2.2528 1.0834 1.0177 1.9695 2.2295 2.7394 3.5011 1.5396 2.5432 2.6358 5.3453 4.3066 7.8043 1.9787 2.912 4.711 5.2547 7.693 7.1263 2.9819 1.8716 6.2206 3.295 9.4807 4.6241 6.4504 2.6297 13.062 4.9247 19.885 6.3272 6.6065 1.3579 13.714 1.8184 19.885-0.90388 3.1509-1.39 5.9085-3.551 8.3781-5.9513 2.4696-2.4004 4.6787-5.0519 6.9879-7.6068 3.7825-4.185 7.9469-8.282 9.9426-13.558 1.1872-3.1386 1.5335-6.5264 1.7394-9.8757 0.2059-3.3493 0.2842-6.7252 0.9722-10.01 1.3279-6.3391 4.9607-12.131 9.9427-16.27 2.2348-1.8564 4.7187-3.3847 7.1025-5.0455 2.3837-1.6608 4.7003-3.486 6.4557-5.801 3.3626-4.4345 4.337-10.169 6.3271-15.366 1.8925-4.9424 4.736-9.4517 7.2703-14.098 2.5343-4.646 4.8037-9.566 5.384-14.826 0.8499-7.7038-1.9761-15.276-4.5194-22.597-1.0154-2.9228-2.0057-5.9509-1.8077-9.0388 0.2131-3.3239 1.7844-6.3994 3.4977-9.2556 1.7132-2.8562 3.6221-5.6497 4.6372-8.8219 1.5101-4.7195 0.9032-9.8662-0.3482-14.661s-3.1266-9.4194-4.1712-14.263c-1.095-5.0777-1.2577-10.302-1.6303-15.483-0.3725-5.181-0.9762-10.42-2.8891-15.249-2.0332-5.133-5.4833-9.6141-9.4768-13.426s-8.5353-6.9988-13.12-10.075c-10.198-6.8413-21.21-13.387-33.443-14.462-5.3268-0.4679-10.683 0.12815-16.03 0.1983-5.3469 0.07016-10.867-0.43386-15.606-2.9099-3.9884-2.0837-7.1633-5.4274-10.045-8.8839-2.8813-3.4565-5.5714-7.1103-8.9368-10.098-3.9892-3.541-8.8485-6.0492-13.979-7.5096-5.1302-1.4604-10.527-1.8898-15.849-1.5292-6.0703 0.4113-12.019 1.832-18.011 2.8922-5.9912 1.0601-12.149 1.7601-18.145 0.72335-6.1426-1.0623-11.821-3.8936-17.326-6.8191-5.5047-2.9255-11.006-6.0075-17.022-7.643-7.9669-2.166-16.555-1.6554-24.405 0.90388-3.1144 1.0154-6.1256 2.3445-9.283 3.217-3.1574 0.87252-6.5416 1.2731-9.6984 0.39852-3.4911-0.9672-6.3705-3.3825-9.1005-5.7637-2.73-2.3813-5.5356-4.8557-8.9771-5.9867-2.3083-0.7586-4.784-0.8661-7.2096-0.72428-2.4256 0.14182-4.8308 0.5254-7.2525 0.72428-6.0441 0.4964-12.127-0.16135-18.186 0.08621-6.0594 0.24756-12.347 1.5263-17.065 5.3371z" fill="#00fc30" opacity=".3" style="mix-blend-mode:normal"/>
  <path id="OC" d="m1127.1 128.35c9.1945 1.7658 18.264 4.1842 27.116 7.231 5.7639 1.9837 11.538 4.2918 16.27 8.1349 5.0367 4.0909 8.6068 9.6895 11.75 15.366 1.7419 3.1454 3.3895 6.3602 5.5132 9.2614 2.1237 2.9012 4.7773 5.5083 8.0449 7.0084 2.8622 1.314 6.0494 1.7206 9.0388 2.7116 6.692 2.2185 12.036 7.2124 18.078 10.847 5.3213 3.201 11.252 5.3803 16.27 9.0388 5.8304 4.251 10.185 10.394 12.654 17.174 1.6143 4.4326 2.4449 9.1062 3.7153 13.649 1.2704 4.5432 3.0519 9.0745 6.2273 12.563 2.3187 2.5474 5.268 4.4175 8.1349 6.3272 7.6762 5.1132 15.107 10.813 20.789 18.078 6.6619 8.5174 10.628 18.795 16.27 28.02 2.8346 4.635 6.1229 9.0619 8.0234 14.152 0.9502 2.5449 1.5393 5.248 1.4845 7.9639-0.055 2.716-0.7757 5.4482-2.2769 7.7122-0.7643 1.1528-1.718 2.1714-2.4719 3.331-0.377 0.57979-0.704 1.1964-0.9172 1.8542-0.2133 0.65786-0.3105 1.3594-0.2264 2.0458 0.1266 1.0336 0.6629 1.9913 1.3929 2.734 0.7299 0.74268 1.645 1.283 2.6042 1.6884 1.9183 0.81091 4.0225 1.1053 5.9456 1.9048 2.5045 1.0412 4.5973 2.9008 6.3154 4.9995s3.0985 4.4478 4.5311 6.7509c2.1993 3.5356 4.542 6.993 6.4249 10.707 1.883 3.7138 3.3069 7.7316 3.5178 11.89 0.2349 4.6321-1.0347 9.1919-1.6053 13.795-0.2853 2.3014-0.3953 4.6414-0.055 6.9353 0.3402 2.2939 1.1492 4.549 2.5641 6.3864 1.7002 2.2077 4.1508 3.6832 6.3272 5.4233 4.2216 3.3753 7.4865 7.8396 9.9427 12.654 5.0709 9.9402 6.771 21.462 5.4232 32.54-0.3871 3.1818-1.0176 6.3359-1.2354 9.5337s-0 6.4917 1.2354 9.4477c1.5905 3.7942 4.7034 6.6966 7.231 9.9427 7.4229 9.5326 9.7851 22.539 7.2311 34.347-0.7486 3.4613-1.8876 6.826-2.7258 10.267s-1.3751 7.0146-0.8897 10.523c0.8186 5.9159 4.4104 11.006 7.231 16.27 3.5712 6.6653 6.0235 14 6.5479 21.543 0.5243 7.5435-0.9453 15.302-4.7402 21.843-1.6916 2.9155-3.8182 5.5611-5.5032 8.4805-1.6851 2.9193-2.9376 6.2403-2.6317 9.5971 0.179 1.9643 0.8837 3.8458 1.7474 5.6191 0.8638 1.7733 1.8908 3.4627 2.772 5.2274 3.3258 6.6598 4.4873 14.271 4.0696 21.703-0.4176 7.4323-2.3608 14.713-4.9735 21.683-3.9876 10.638-9.552 20.666-16.27 29.828-1.6857 2.2991-3.4654 4.5822-4.5193 7.231-1.029 2.5863-1.3159 5.3953-1.8078 8.1349-1.2516 6.971-3.8798 13.646-7.231 19.885-7.0357 13.099-17.364 24.431-29.828 32.54-12.576 8.1814-27.485 13.072-42.482 12.654-14.337-0.39914-28.206-5.5653-40.674-12.654-3.4166-1.9425-6.7511-4.0335-9.9426-6.3272-8.686-6.2425-16.272-13.971-22.597-22.597-7.0681-9.6405-12.567-20.376-19.885-29.828-5.6519-7.2992-12.371-13.809-17.174-21.693-5.3392-8.7643-8.1707-19.008-14.462-27.116-6.0511-7.7986-14.776-12.959-22.597-18.981-10.896-8.3908-20.32-18.777-27.116-30.732-4.7724-8.3948-8.3906-17.727-15.366-24.405-6.4121-6.1387-15.083-9.4405-21.693-15.366-2.7899-2.501-5.1613-5.425-7.6909-8.1889s-5.274-5.4118-8.5789-7.177c-5.2415-2.7994-11.393-3.1428-17.174-4.5194-3.9439-0.93918-7.8144-2.4057-11.092-4.7919-3.2776-2.3862-5.9356-5.7542-6.9854-9.6702-1.2636-4.7134-0.1404-9.6953 0.9039-14.462 1.5217-6.946 2.9827-14.183 7.231-19.885 3.7008-4.9675 9.1688-8.2833 13.558-12.654 4.5443-4.5253 7.9039-10.189 9.9427-16.27 2.713-8.091 3.1008-16.784 2.7116-25.309-0.3029-6.6354-1.058-13.328 0-19.885 1.0371-6.4277 3.7886-12.512 4.5194-18.981 0.9177-8.1235-1.403-16.24-1.8077-24.405-0.1405-2.8355-0.05-5.689-0.4366-8.5016-0.3865-2.8126-1.2979-5.6418-3.1789-7.7682-2.1975-2.4843-5.4487-3.7406-8.0383-5.8129-1.2948-1.0362-2.4446-2.3134-3.054-3.8557-0.3047-0.77116-0.4691-1.6018-0.4401-2.4305s0.2545-1.6547 0.6858-2.3629c0.4305-0.70698 1.0576-1.2845 1.7691-1.7074 0.7116-0.4229 1.5062-0.69517 2.318-0.85692 1.6236-0.3235 3.2974-0.2109 4.9517-0.14728 4.2929 0.1651 8.6244-0.013 12.816-0.95303 4.1919-0.94002 8.2524-2.6673 11.588-5.3741 4.5103-3.6597 7.4424-8.8519 10.846-13.558 3.3486-4.6295 7.3078-9.0169 9.0388-14.462 1.7595-5.5347 1.0233-11.617 2.7117-17.174 1.0135-3.3358 2.8756-6.3696 5.1152-9.0415s4.8559-5.0022 7.539-7.2283c2.7312-2.266 5.5472-4.4393 8.1013-6.9033 2.554-2.464 4.8586-5.2474 6.3608-8.4627 2.6121-5.5908 2.6106-11.989 3.6155-18.078 1.0264-6.2188 3.1332-12.205 5.4233-18.078 0.9641-2.472 1.9682-4.95 2.4604-7.5574 0.4922-2.6073 0.4409-5.391-0.6527-7.8086-0.7941-1.7554-2.0925-3.2309-3.4509-4.5972-1.3585-1.3663-2.8026-2.6598-3.9813-4.1838-1.1788-1.524-2.0931-3.3272-2.1938-5.2512-0.05-0.96202 0.1081-1.9408 0.5109-2.8159s1.0555-1.6421 1.8841-2.1333c0.9494-0.56287 2.0702-0.74326 3.1611-0.91073 1.091-0.16746 2.2117-0.34256 3.166-0.89703 1.2624-0.73344 2.0961-2.078 2.427-3.5 0.331-1.422 0.2011-2.9175-0.1291-4.3397-0.6603-2.8443-2.1093-5.5162-2.2979-8.4301-0.1496-2.3114 0.5088-4.5921 1.2079-6.8003s1.4533-4.4422 1.5038-6.7578c0.052-2.4019-0.6589-4.7595-1.5822-6.9775-0.9233-2.218-2.0639-4.3425-2.9372-6.5807-2.3434-6.0058-2.666-12.78-0.9039-18.981z" fill="#fcf100" opacity=".3"/>
  <path id="FC" d="m798.12 45.194c2.6157 3.6638 4.1507 7.9835 5.3605 12.32 1.2098 4.3361 2.1305 8.7618 3.6783 12.989 2.665 7.2786 7.1891 14 8.1349 21.693 0.71392 5.8073-0.69765 11.68-2.7116 17.174-2.1825 5.9531-5.0736 11.621-8.1349 17.174-3.8528 6.9882-8.0377 13.944-9.9426 21.693-1.6634 6.7668-1.5083 13.847-0.90388 20.789 0.49928 5.7347 1.2976 11.44 1.8078 17.174 0.23559 2.6477 0.41049 5.3071 0.89726 7.9203 0.48678 2.6132 1.2988 5.1982 2.7182 7.4456 0.65368 1.035 1.429 1.9877 2.11 3.005 0.68096 1.0172 1.2746 2.1201 1.5055 3.3222 0.28786 1.4987-0.0127 3.0722-0.65708 4.4556-0.64434 1.3834-1.617 2.5917-2.6936 3.6733-2.1532 2.1633-4.7641 3.8887-6.5919 6.3331-1.8729 2.5047-2.7941 5.6089-3.2009 8.7097s-0.33374 6.2414-0.41462 9.3678c-0.14129 5.4612-0.75546 10.909-1.8078 16.27-0.64487 3.2852-1.4577 6.6409-0.90388 9.9426 0.22899 1.3653 0.6874 2.6815 0.97408 4.0358 0.28669 1.3543 0.39438 2.795-0.0702 4.0991-0.3313 0.92996-0.94269 1.7465-1.6882 2.3937-0.74553 0.64713-1.6224 1.1308-2.5382 1.4992-1.8318 0.73688-3.809 1.0197-5.7162 1.5304-6.3942 1.7121-11.837 5.9277-18.078 8.1349-6.6061 2.3365-13.801 2.3202-20.789 1.8078-6.9379-0.50872-13.84-1.4791-20.789-1.8078-8.5116-0.40257-17.274 0.125-25.309-2.7116-3.9272-1.3864-7.5374-3.5343-11.362-5.1828-3.8246-1.6485-8.0434-2.8056-12.139-2.0482-2.2633 0.41855-4.3799 1.4024-6.4254 2.4576-2.0456 1.0551-4.0598 2.1958-6.2289 2.9657-5.7302 2.0338-12.012 1.3287-18.078 0.90388-6.9196-0.48466-13.861-0.56963-20.789-0.90388-9.0485-0.43652-18.072-1.298-27.116-1.8078-9.0469-0.50987-18.127-0.66888-27.116-1.8078-7.5165-0.95228-15.061-2.5911-22.597-1.8078-4.5868 0.47678-9.0296 1.8408-13.558 2.7116-6.3342 1.2181-12.893 1.4845-18.981 3.6155-4.457 1.5601-8.5076 4.068-12.654 6.3272-6.1556 3.3537-12.579 6.1844-18.981 9.0388-8.7454 3.899-17.468 7.8502-26.212 11.75-7.0176 3.1299-14.06 6.2322-20.789 9.9426-7.2007 3.9707-14.058 8.6601-19.885 14.462-4.7065 4.6863-8.6863 10.04-12.654 15.366-4.8969 6.5729-9.8061 13.14-14.462 19.885-2.8618 4.1464-5.7038 8.5588-6.3271 13.558-0.52461 4.2072 0.57609 8.4272 0.90388 12.654 0.56011 7.223-1.1428 14.452-0.90388 21.693 0.20116 6.0956 1.7712 12.052 2.7116 18.078 0.62223 3.9871 0.99319 8.0992 2.7116 11.75 1.3709 2.9127 3.5333 5.3778 5.8203 7.6434s4.7321 4.3804 6.834 6.8187c4.26 4.9416 6.9599 11.029 10.847 16.27 3.9027 5.262 9.1417 9.7062 15.366 11.75 5.7994 1.9047 12.068 1.642 18.078 2.7116 6.9648 1.2396 13.472 4.2456 19.885 7.231 8.0767 3.7597 16.193 7.5587 23.501 12.654 2.6854 1.8724 5.2558 3.9163 8.0524 5.6182 2.7966 1.7019 5.8666 3.0681 9.1213 3.4206 3.0402 0.32927 6.1284-0.24231 9.0027-1.2863 2.8742-1.044 5.5572-2.5497 8.171-4.1369 4.3886-2.665 8.6866-5.6095 13.558-7.231 4.3444-1.446 8.9795-1.7798 13.558-1.8078 3.9345-0.024 7.8846 0.17137 11.75 0.90387 5.6269 1.0662 10.972 3.2478 16.27 5.4233 2.8605 1.1747 5.7308 2.3567 8.4006 3.917 2.6698 1.5603 5.1504 3.522 6.9654 6.0257 2.8248 3.8967 3.8413 8.7933 4.5194 13.558 1.1492 8.0753 1.5294 16.272 0.90388 24.405-0.42221 5.4895-1.3028 10.947-2.7116 16.27-1.7687 6.6821-4.3867 13.174-8.1349 18.981-5.5639 8.6212-13.411 15.466-20.789 22.597-5.5298 5.3444-10.884 10.941-17.174 15.366-7.3197 5.1502-15.745 8.5849-24.405 10.847-6.0116 1.57-12.17 2.5958-18.078 4.5194-7.9859 2.6001-15.405 6.8056-23.501 9.0388-8.7799 2.4218-18.013 2.4356-27.116 2.7116-9.6422 0.29235-19.277 0.89735-28.924 0.90388-9.4049 6e-3 -18.864-0.56455-28.02-2.7116-8.3877-1.9668-16.726-5.2703-25.309-4.5194-7.4383 0.6508-14.31 4.3097-21.693 5.4233-8.1497 1.2292-16.412-0.70041-24.405-2.7116-6.5464-1.6473-13.139-3.3676-19.885-3.6155-6.959-0.25577-13.865 1.0626-20.789 1.8078-5.2048 0.56016-10.49 0.79482-15.656-0.0486-5.1665-0.84339-10.239-2.8233-14.172-6.2786-2.1553-1.8937-3.9265-4.1858-6.026-6.1412-1.0498-0.97769-2.1862-1.8733-3.4474-2.5568s-2.6533-1.1514-4.0848-1.2446c-2.4606-0.16021-4.8618 0.78353-7.0348 1.9491-2.173 1.1656-4.2277 2.574-6.5234 3.4742-4.8618 1.9065-10.414 1.3451-15.316-0.45535-4.902-1.8005-9.2836-4.7523-13.608-7.6796-9.2558-6.2652-18.585-12.619-26.212-20.789-7.3378-7.8596-12.927-17.238-17.174-27.116-2.2996-5.3493-4.2961-10.988-8.1349-15.366-2.7605-3.1483-6.3221-5.4629-9.7636-7.8478s-6.8772-4.9502-9.2178-8.422c-3.0519-4.5268-3.9396-10.112-5.4233-15.366-1.6521-5.8504-4.1124-11.445-5.849-17.27-1.7366-5.8259-2.7374-12.054-1.382-17.981 0.77231-3.3769 2.2798-6.5314 3.5213-9.7654s2.2343-6.6719 1.9019-10.12c-0.39855-4.134-2.6518-7.8438-5.0825-11.211-2.4308-3.3676-5.1332-6.6224-6.6679-10.482-1.5768-3.9651-1.8205-8.3439-1.5307-12.601 0.28982-4.2573 1.0909-8.463 1.5307-12.707 0.60251-5.8141 0.52524-11.679 1.0229-17.503 0.49769-5.824 1.6094-11.708 4.4003-16.844 2.2174-4.0805 5.4052-7.5316 8.2616-11.193 2.8564-3.6617 5.465-7.7221 6.2005-12.308 0.7274-4.5348-0.44102-9.1378-1.6509-13.568-1.2099-4.4306-2.483-8.9845-1.9646-13.548 0.44426-3.9115 2.1788-7.5502 4.038-11.02 1.8592-3.4699 3.8859-6.8975 5.0008-10.673 1.111-3.7624 1.2803-7.7571 2.4429-11.504 0.58129-1.8734 1.4205-3.6894 2.6677-5.2033 1.2472-1.5139 2.9264-2.7134 4.8321-3.1781 1.497-0.36506 3.1101-0.28063 4.5194-0.90388 0.82038-0.36282 1.5316-0.95523 2.074-1.6697 0.54245-0.71443 0.919-1.5483 1.1418-2.4172 0.44558-1.7378 0.27845-3.5808-0.12371-5.3292s-1.0328-3.4351-1.5231-5.1608c-0.49032-1.7258-0.84199-3.5231-0.66508-5.3084 0.29549-2.982 2.0124-5.6032 3.6155-8.1349 5.1448-8.1251 9.6206-16.693 15.366-24.405 5.4443-7.3081 12.262-13.96 20.789-17.174 1.2725-0.47962 2.5757-0.8799 3.8246-1.418 1.2489-0.53815 2.4553-1.2254 3.4064-2.1975 1.1989-1.2254 1.9336-2.8527 2.2823-4.5312 0.34864-1.6785 0.3307-3.4137 0.17695-5.1212-0.3075-3.4149-1.151-6.8408-0.65149-10.233 0.46855-3.1817 2.0924-6.0826 3.9919-8.6778 1.8994-2.5952 4.0983-4.9631 5.9508-7.592 2.5191-3.5749 4.3578-7.5738 6.4658-11.405 2.108-3.8317 4.5595-7.583 7.9962-10.288 4.2763-3.3653 9.6996-4.8324 14.954-6.2491 5.254-1.4167 10.672-2.9482 14.874-6.4052 2.7946-2.2988 4.8942-5.3323 6.6721-8.4841 1.7779-3.1517 3.2704-6.4589 5.0784-9.5935 7.3114-12.676 19.358-21.866 31.636-29.828 6.2938-4.0817 12.765-7.9519 19.7-10.811 6.9354-2.8588 14.378-4.6899 21.878-4.5552 1.4319 0.0257 2.8719 0.12224 4.2908-0.0721 1.4189-0.19431 2.8436-0.71106 3.8441-1.7357 0.60972-0.62437 1.036-1.4112 1.319-2.2367s0.42823-1.692 0.52853-2.559c0.20062-1.7338 0.23327-3.5196 0.86415-5.147 0.66924-1.7264 1.9706-3.1448 3.4362-4.2763 1.4656-1.1315 3.1064-2.0098 4.6987-2.9547 2.8034-1.6636 5.4715-3.5436 8.1349-5.4233 8.9779-6.3358 18.233-12.827 28.924-15.366 5.8845-1.3975 11.982-1.5371 17.997-2.1697 6.015-0.63258 12.143-1.8271 17.254-5.0613 5.0611-3.2028 8.7568-8.1699 13.558-11.75 4.6921-3.4991 10.318-5.5726 16.038-6.8139 5.72-1.2413 11.577-1.6908 17.406-2.2249 12.03-1.1023 24.099-2.5792 36.155-1.8078 6.3291 0.40502 12.661 1.4292 18.981 0.90388 6.2065-0.51582 12.183-2.5086 18.078-4.5194 10.234-3.4914 20.959-7.1354 31.636-5.4233 5.787 0.92797 11.316 3.4122 17.174 3.6155 5.3648 0.18623 10.58-1.553 15.772-2.9156 5.1922-1.3626 10.756-2.3512 15.864-0.69996 2.0066 0.64872 3.8622 1.6826 5.7597 2.6029 1.8975 0.92031 3.8891 1.742 5.9907 1.9165 3.2784 0.27224 6.4789-1.0521 9.3551-2.6488s5.6139-3.5056 8.7224-4.5822c3.4884-1.2081 7.2854-1.3016 10.944-0.80781 3.6585 0.49376 7.2133 1.5546 10.749 2.6156 8.8343 2.6507 17.931 5.356 27.116 4.5194 7.3631-0.67066 14.358-3.592 21.693-4.5194 9.0136-1.1396 18.09 0.76914 27.116 1.8078 8.0233 0.92325 16.163 1.1673 24.012 3.0728 3.9241 0.95274 7.7662 2.3255 11.269 4.3349 3.5026 2.0095 6.6633 4.6717 9.0096 7.9582z" fill="#fc0200" opacity=".3"/>
  <path id="CB" d="m1006.9 532.38c-1.8259-0.16162-3.6593 0.48203-5.1747 1.5134-1.5153 1.0313-2.7442 2.4304-3.8433 3.8974-1.099 1.467-2.0858 3.0171-3.2218 4.4557s-2.4406 2.7787-4.0301 3.6917c-2.6904 1.5453-5.9232 1.7328-9.023 1.8635-3.0998 0.13065-6.3262 0.27476-9.0545 1.752-2.6522 1.436-4.5159 3.9646-6.1704 6.4863-1.6546 2.5217-3.2376 5.172-5.58 7.0719-2.734 2.2175-6.2855 3.2297-9.0388 5.4233-2.4654 1.9642-4.1283 4.7425-5.6508 7.5027-1.5224 2.7602-2.9909 5.6106-5.1958 7.8632-2.053 2.0975-4.6438 3.5722-7.2047 5.0061s-5.1631 2.8803-7.2574 4.9366c-3.4896 3.4263-5.2362 8.1892-7.231 12.654-1.8733 4.1933-4.0561 8.2698-5.4233 12.654-1.6326 5.2358-2.0576 10.791-1.8078 16.27 0.20649 4.5277 0.86192 9.1085 0 13.558-1.0347 5.3416-4.179 10.069-5.4233 15.366-1.1776 5.0129-0.59421 10.251 0 15.366 0.7787 6.703 1.5756 13.453 3.6155 19.885 2.1227 6.6934 5.5433 12.891 9.0388 18.981 3.1306 5.4545 6.3893 10.929 10.847 15.366 4.0622 4.0436 9.0577 7.1296 14.462 9.0388 6.0858 2.1499 12.578 2.8036 18.981 3.6155 1.5222 0.19301 3.0574 0.39921 4.4989 0.92504s2.8006 1.4034 3.636 2.6905c0.9267 1.4277 1.1238 3.257 0.73505 4.9141-0.38877 1.6571-1.3229 3.1504-2.4828 4.3961-2.3198 2.4914-5.4708 4.0143-8.195 6.0557-5.743 4.3038-9.4193 10.768-12.654 17.174-9.16 18.139-16.16 37.618-18.078 57.848-2.5948 27.375 4.1679 54.758 4.5194 82.253 0.16568 12.96-1.0943 25.952 0 38.867 0.81831 9.6578 2.9504 19.235 2.7116 28.924-0.0756 3.0688-0.38946 6.1338-0.2965 9.202 0.093 3.0683 0.61745 6.1899 2.1042 8.8755 1.1434 2.0654 2.851 3.8264 4.9176 4.9676 2.0666 1.1413 4.4898 1.6491 6.8328 1.3596 2.5273-0.3123 4.8455-1.5053 7.1539-2.5805 2.3084-1.0751 4.7649-2.0689 7.3081-1.9389 1.6941 0.087 3.3168 0.6681 4.9398 1.1615s3.3267 0.9067 5.0029 0.6462c1.7523-0.2723 3.3091-1.2563 4.7192-2.3316 1.4101-1.0754 2.7459-2.274 4.3195-3.0916 3.0435-1.5813 6.6228-1.5778 10.029-1.9808 1.703-0.2015 3.4091-0.5178 4.9874-1.1883 1.5784-0.6705 3.032-1.7194 3.9652-3.1581 1.2092-1.8642 1.4414-4.1694 1.9432-6.334 0.2509-1.0823 0.5806-2.1578 1.1333-3.1215s1.3445-1.8155 2.3468-2.2948c1.1037-0.52788 2.3701-0.57171 3.5936-0.56663 1.2234 5e-3 2.4753 0.0453 3.6374-0.33725 1.4838-0.48846 2.6811-1.6328 3.5289-2.9449 0.8478-1.3121 1.3857-2.7958 1.9142-4.2658 0.5286-1.47 1.0616-2.9549 1.9011-4.2723 0.8395-1.3174 2.0247-2.472 3.5023-2.9791 1.5832-0.5433 3.3155-0.29811 4.9686-0.0352 1.653 0.26292 3.3761 0.53334 4.9741 0.0352 1.5716-0.48992 2.8214-1.6608 4.0305-2.778 1.209-1.1172 2.5054-2.2539 4.1044-2.6453 0.9015-0.22067 1.8508-0.18774 2.7637-0.0203 0.9129 0.16747 1.796 0.46616 2.671 0.77565 1.7501 0.61898 3.5716 1.2963 5.4118 1.0524 1.0598-0.1405 2.0582-0.58266 2.9853-1.115 0.9271-0.53239 1.7975-1.1581 2.7142-1.7082s1.8938-1.029 2.9438-1.2304c1.05-0.20134 2.1858-0.10409 3.1072 0.43805 0.7386 0.43459 1.2918 1.1184 1.8221 1.7916 0.5303 0.67321 1.0699 1.3646 1.7934 1.8239 0.9955 0.63193 2.2562 0.7542 3.412 0.5208 1.1558-0.23341 2.221-0.79518 3.2025-1.4487 0.9814-0.65353 1.8953-1.4036 2.8692-2.0684s2.0235-1.2499 3.1706-1.5231c1.3384-0.31874 2.7441-0.19756 4.0962 0.0564 1.3522 0.25401 2.6789 0.63841 4.0387 0.84744 3.0304 0.46582 6.1301 0.0469 9.1235-0.61594 2.9935-0.6628 5.9336-1.569 8.954-2.0957 3.3239-0.5796 6.7548-0.70277 9.9427-1.8078 4.0856-1.4161 7.5553-4.3747 11.75-5.4233 1.6399-0.40989 3.338-0.51255 5.0193-0.68743s3.3801-0.43061 4.9233-1.1203c2.0769-0.92825 3.7313-2.5745 5.3627-4.16s3.3508-3.184 5.4839-3.9749c1.8512-0.68633 3.875-0.71059 5.8486-0.65724 1.9736 0.0533 3.9728 0.17382 5.9018-0.24664 2.8733-0.62628 5.368-2.4092 7.4893-4.4459 2.1212-2.0367 3.9528-4.3585 6.0689-6.4006 4.6441-4.4816 10.519-7.4888 15.366-11.75 4.498-3.9548 8.0003-8.8881 11.75-13.558 4.0135-4.998 8.3875-9.7698 13.558-13.558 1.8548-1.359 3.8133-2.5927 5.4977-4.1578 1.6845-1.5651 3.107-3.5268 3.541-5.7849 0.3733-1.9424-0.01-3.9386-0.2894-5.8962-0.2831-1.9576-0.4574-4.0227 0.2894-5.8542 0.5696-1.397 1.6321-2.5379 2.7843-3.5119 1.1522-0.97403 2.414-1.8144 3.5429-2.8153 3.5494-3.1467 5.6234-7.9152 5.4232-12.654-0.1409-3.3352-1.3429-6.6334-0.9038-9.9426 0.4296-3.2378 2.3719-6.0499 4.3157-8.6748 1.9439-2.6248 3.9998-5.3138 4.7231-8.4989 0.6152-2.7091 0.2043-5.5499-0.4923-8.2393s-1.6758-5.3061-2.2194-8.0305c-1.1822-5.9249-0.2562-12.071-0.9039-18.078-0.7072-6.5586-3.2604-12.749-5.4232-18.981-1.5092-4.3485-2.8696-8.8247-5.4233-12.654-2.8607-4.2901-7.0454-7.5055-11.281-10.447s-8.6416-5.726-12.22-9.4385c-6.0435-6.2695-9.2768-14.697-14.462-21.693-7.1225-9.6094-17.743-16.278-24.405-26.212-5.4106-8.069-7.8519-17.767-12.654-26.212-4.1392-7.2788-9.9558-13.482-16.27-18.981-7.0997-6.1842-14.889-11.569-21.693-18.078-8.558-8.1861-15.393-17.992-21.693-28.02-4.8264-7.682-9.4848-15.67-16.27-21.693-6.4523-5.7274-14.547-9.4104-20.789-15.366-2.8058-2.6769-5.1845-5.7649-7.8472-8.5842s-5.6952-5.4208-9.3265-6.7817c-4.1054-1.5387-8.6159-1.3738-12.995-1.5856-2.1896-0.10592-4.3869-0.31328-6.5043-0.88063-2.1175-0.56736-4.1626-1.5099-5.8093-2.957-2.3107-2.0306-3.6834-4.8903-5.4194-7.4299-0.868-1.2698-1.847-2.4812-3.0513-3.438s-2.6514-1.6508-4.1835-1.7864z" fill="#f410e1" opacity=".3"/>
  <path id="AM" transform="matrix(1.1059 0 0 1.106 -67.209 -62.106)" d="m627.29 589.33c-3.1659 1.9941-5.7914 4.8373-7.5275 8.1518-1.7361 3.3144-2.5785 7.0917-2.4151 10.83 0.17218 3.94 1.4638 7.8249 3.685 11.084 2.2212 3.2587 5.3651 5.8811 8.9695 7.4816s7.658 2.1742 11.565 1.6366c3.9069-0.53752 7.655-2.1845 10.693-4.6989s5.3571-5.8883 6.6158-9.6258c1.2587-3.7375 1.4532-7.8268 0.55504-11.667-0.8982-3.8401-2.8864-7.4189-5.6722-10.21-2.7858-2.7915-6.3606-4.7868-10.199-5.6928-5.4942-1.2968-11.493-0.297-16.27 2.7116z" opacity=".3"/>
  <path id="SN" transform="matrix(1.6252 0 0 1.655 -455.43 -347.08)" d="m760.16 533.29c-2.3664-3.1946-6.0332-5.3953-9.9654-5.981s-8.0812 0.45105-11.276 2.8174c-3.1946 2.3664-5.3953 6.0332-5.981 9.9654-0.58564 3.9322 0.45105 8.0812 2.8174 11.276s6.0332 5.3953 9.9654 5.981 8.0812-0.45105 11.276-2.8174c3.1946-2.3663 5.3953-6.0332 5.981-9.9654 0.58564-3.9322-0.45105-8.0812-2.8174-11.276z" fill="#ff0027" opacity=".3"/>
  <path id="TC" d="m567.64 491.71c-0.58427 1.1703-0.81819 2.5028-0.73773 3.8084 0.0805 1.3055 0.46893 2.5838 1.0657 3.7477 1.1935 2.3279 3.1798 4.1602 5.3243 5.6585 2.1445 1.4983 4.4754 2.7084 6.6747 4.125s4.3025 3.0787 5.7506 5.2574c1.546 2.326 2.2594 5.1183 2.5414 7.897 0.28196 2.7786 0.15816 5.58 0.17021 8.3728 0.0341 7.898 1.1573 15.757 2.7116 23.501 1.3782 6.8664 3.1038 13.907 1.8078 20.789-0.76722 4.0744-2.57 7.8901-4.7265 11.431-2.1565 3.541-4.6742 6.846-7.0239 10.262-4.5488 6.613-8.4846 13.666-13.558 19.885-4.6063 5.6466-10.121 10.551-16.27 14.462-7.3956 4.7041-15.612 7.9315-23.501 11.75-6.3102 3.0546-12.445 6.5046-18.981 9.0388-7.299 2.8298-14.991 4.4761-22.597 6.3272-10.753 2.6168-21.492 5.6776-32.54 6.3271-10.536 0.61949-21.081-0.97351-31.636-0.90388-11.172 0.0737-22.452 2.0022-33.443 0-7.9223-1.4431-15.465-4.8997-23.501-5.4233-2.1055-0.13718-4.2184-0.07-6.3271 0-3.1777 0.10546-6.3917 0.22262-9.4508 1.0888-3.0591 0.86621-5.9954 2.5692-7.7229 5.2383-1.179 1.8217-1.7328 3.9904-1.9211 6.1522-0.18839 2.1618-0.0298 4.3368 0.11338 6.5021 0.42283 6.3955 0.72611 12.887 2.7116 18.981 2.6575 8.1567 8.1377 15.044 13.558 21.693 4.0544 4.9735 8.2185 9.9997 13.558 13.558 4.1832 2.7878 9.0399 4.641 12.654 8.1349 2.9526 2.8541 4.8545 6.5936 7.231 9.9427 4.8601 6.8488 11.718 12.054 18.981 16.27 6.0661 3.5212 12.473 6.423 18.981 9.0388 6.6639 2.6784 13.618 5.1657 18.981 9.9427 3.5043 3.1214 6.1962 7.1165 9.9427 9.9427 3.5651 2.6893 7.8948 4.1707 12.237 5.2117 4.3427 1.041 8.7804 1.6854 13.071 2.9232 4.2122 1.2152 8.2406 2.9902 12.401 4.3729 4.1603 1.3827 8.5442 2.3782 12.908 1.9542 2.8973-0.28156 5.6941-1.1793 8.5413-1.7853s5.8606-0.91183 8.6324-0.0224c3.1229 1.0021 5.5661 3.3841 8.1349 5.4233 4.3471 3.4509 9.3138 6.061 14.462 8.1349 9.2397 3.722 19.074 5.7498 28.924 7.231 8.6747 1.3044 17.449 2.2006 26.212 1.8078 9.8403-0.44118 19.855-2.6247 28.02-8.1349 3.0202-2.0382 5.7407-4.4982 8.7879-6.4959 3.0472-1.9976 6.5514-3.5485 10.194-3.4468 2.8282 0.079 5.525 1.142 8.1463 2.207 2.6213 1.065 5.2982 2.1612 8.1235 2.3124 3.5016 0.18732 6.9076-1.0935 10.099-2.5469 3.1912-1.4534 6.3431-3.1178 9.7866-3.7803 2.9379-0.56516 5.9761-0.37622 8.9271-0.86863 1.4755-0.24621 2.9361-0.66832 4.2372-1.4065 1.301-0.73821 2.4389-1.809 3.1055-3.1481 0.70336-1.413 0.85023-3.0648 0.5792-4.6197-0.27104-1.5549-0.94114-3.0198-1.7922-4.349-1.7022-2.6585-4.1055-4.7896-6.018-7.301-4.7131-6.189-6.1312-14.176-8.1349-21.693-1.9218-7.2098-4.508-14.288-5.4233-21.693-1.0746-8.6944 0.19481-17.481 0.90388-26.212 0.54263-6.6822 0.77026-13.468 2.7116-19.885 2.7048-8.9405 8.529-16.533 13.558-24.405 1.6436-2.5723 3.2214-5.2068 5.2282-7.507s4.5003-4.2768 7.4261-5.1473c2.1098-0.6277 4.4189-0.67918 6.3428-1.7487 0.96194-0.53475 1.8067-1.3412 2.208-2.366 0.20064-0.51241 0.28612-1.0727 0.22179-1.6192-0.0643-0.54652-0.28132-1.0778-0.63768-1.4971-0.31034-0.36517-0.71973-0.63979-1.163-0.82179-0.44332-0.18201-0.92025-0.2738-1.3984-0.30554-0.95636-0.0635-1.9102 0.109-2.8618 0.22346-4.514 0.54297-9.0713-0.21704-13.557-0.95722s-9.0542-1.4643-13.559-0.85054c-2.7455 0.37405-5.4022 1.2382-8.1357 1.6913-2.7335 0.45315-5.6616 0.46318-8.1341-0.78742-1.6549-0.83705-3.0023-2.1908-4.0938-3.6901s-1.9496-3.1524-2.8373-4.7808c-0.88766-1.6283-1.8171-3.25-3.0286-4.6541-1.2116-1.4041-2.7323-2.5913-4.5024-3.1448-2.1806-0.68187-4.5391-0.35736-6.7792 0.0918-2.2402 0.44919-4.5037 1.0204-6.7789 0.81204-2.1712-0.19886-4.2059-1.0947-6.2584-1.8299-2.0525-0.73527-4.2609-1.3237-6.3958-0.8817-1.953 0.40432-3.6442 1.6396-5.0188 3.0845-1.3747 1.445-2.4886 3.1136-3.7384 4.6679-1.2498 1.5542-2.6788 3.0269-4.4713 3.9013-0.89625 0.43721-1.8762 0.71659-2.8726 0.75438-0.99648 0.0378-2.0094-0.17194-2.8803-0.6577-1.3484-0.75212-2.29-2.1516-2.5882-3.6666-0.29819-1.515 0.0223-3.1232 0.78045-4.4683 0.53634-0.9515 1.2749-1.7697 1.9618-2.6189 0.68693-0.8492 1.3384-1.7586 1.6537-2.8044 0.26487-0.8785 0.27704-1.8369 0-2.7116-0.2283-0.72084-0.64896-1.3768-1.1926-1.9023-0.54368-0.52549-1.2083-0.92142-1.9217-1.172-1.4268-0.50111-3.0211-0.41129-4.4525 0.0765-1.4314 0.4878-2.7111 1.3537-3.8334 2.3673-1.1224 1.0136-2.0987 2.1761-3.0617 3.3421-3.4164 4.1364-6.7159 8.3683-9.9427 12.654-2.3218 3.0839-4.6118 6.2031-7.231 9.0388-3.9125 4.2359-8.5643 7.8482-11.75 12.654-1.5108 2.2789-2.6562 4.7762-3.9903 7.1629s-2.8973 4.7077-5.0485 6.3953c-2.4783 1.9441-5.5852 2.9246-8.6903 3.4534-3.1051 0.52881-6.2659 0.64354-9.3873 1.066-2.5099 0.33968-5.0116 0.87951-7.5438 0.82253-1.2661-0.0285-2.536-0.209-3.7309-0.62844-1.1949-0.41945-2.3145-1.0843-3.1874-2.0018-1.315-1.3824-2.0022-3.2589-2.3195-5.1403-0.31733-1.8814-0.29788-3.8006-0.39213-5.7062-0.0712-1.44-0.2075-2.8892-0.0194-4.3186 0.18815-1.4295 0.74075-2.8683 1.8271-3.8163 0.61713-0.53851 1.375-0.89279 2.1514-1.1535 0.77645-0.26071 1.579-0.43409 2.368-0.65426 3.5134-0.98053 6.691-2.8666 9.9427-4.5194 3.6044-1.832 7.3475-3.3974 10.847-5.4233 4.855-2.8109 9.1598-6.4604 13.558-9.9427 9.3975-7.4403 19.44-14.295 27.116-23.501 7.3905-8.8634 12.293-19.608 15.366-30.732 3.0799-11.149 4.39-22.806 3.6155-34.347-0.77186-11.501-3.6111-22.841-8.1349-33.443-3.7219-8.7229-8.5841-16.962-14.462-24.405-1.3181-1.669-2.6929-3.3042-4.276-4.7243-1.5831-1.4201-3.3867-2.6253-5.3923-3.3327-2.0056-0.7074-4.2248-0.8962-6.2722-0.32102-2.0474 0.57519-3.8987 1.9559-4.8486 3.8586z" fill="#4100f2" opacity=".3"/>
  <path id="CG" d="m517.02 513.4c6.5915-2.8827 13.619-4.8331 20.789-5.4233 8.6491-0.71194 17.558 0.61486 25.309 4.5194 5.2332 2.6364 9.8213 6.3647 14.462 9.9426 0.78933 0.60856 1.5923 1.22 2.5099 1.6091 0.91758 0.38913 1.9764 0.53848 2.9134 0.19863 0.89292-0.32387 1.5975-1.0737 1.9709-1.947 0.37337-0.87338 0.4351-1.8591 0.28873-2.7976-0.29273-1.877-1.3628-3.5233-2.2596-5.198-1.4677-2.7409-2.5445-5.7335-4.5194-8.1349-1.5653-1.9033-3.6145-3.3345-5.5914-4.8058-1.9769-1.4713-3.946-3.049-5.2552-5.1368-0.70021-1.1167-1.1923-2.3504-1.842-3.4972-0.6497-1.1468-1.4988-2.2397-2.6774-2.8299-1.095-0.54834-2.3723-0.6107-3.5915-0.49538-1.2192 0.11532-2.4189 0.39638-3.6395 0.49538-2.4319 0.19724-4.8591-0.33222-7.231-0.90388-3.7132-0.89491-7.4278-1.9123-10.847-3.6155-4.1188-2.052-7.7009-5.0454-11.75-7.231-3.6314-1.9599-7.6397-3.2545-11.75-3.6155-6.3463-0.55729-12.651 1.096-18.981 1.8078-5.9978 0.67427-12.063 0.50227-18.078 0-5.438-0.45412-10.849-1.1768-16.27-1.8078-5.7618-0.67068-11.562-1.2426-17.174-2.7116-10.09-2.6415-19.612-8.4366-25.309-17.174-5.8496-8.9712-7.2111-20.062-8.1349-30.732-0.65136-7.5232-1.1585-15.135 0-22.597 2.4391-15.71 12.195-29.588 24.405-39.771 11.234-9.3691 24.501-15.969 37.963-21.693 55.364-23.541 116.12-33.52 176.26-31.636 61.997 1.9426 123.35 16.332 180.78 39.771 36.349 14.836 71.41 33.412 102.14 57.848 10.331 8.2161 20.248 17.186 27.743 28.052 7.4942 10.866 12.462 23.834 12.028 37.027-0.32281 9.8195-3.57 19.276-5.4233 28.924-0.97922 5.0979-1.5712 10.267-2.6505 15.345-1.0792 5.0777-2.6754 10.118-5.4844 14.483-0.71668 1.1138-1.5124 2.1844-2.0821 3.38-0.56971 1.1956-0.9043 2.5554-0.62952 3.851 0.20896 0.98527 0.76346 1.8795 1.4897 2.5774s1.6183 1.2076 2.5568 1.5729c1.8771 0.73078 3.9176 0.89495 5.8961 1.273 3.0606 0.58471 5.9932 1.6874 8.9544 2.6573 2.9612 0.96991 6.0075 1.8172 9.1232 1.8621 3.9042 0.0562 7.7662-1.1699 11.131-3.1513 3.3645-1.9814 6.255-4.6955 8.7545-7.6953 6.6893-8.0281 10.595-17.999 13.558-28.02 1.0676-3.6104 2.0323-7.2655 3.5167-10.725 1.4843-3.46 3.53-6.754 6.426-9.1598 3.5434-2.9438 8.1282-4.3848 11.75-7.231 4.0267-3.1641 6.6021-7.8916 8.0046-12.817 1.4025-4.9254 1.7257-10.086 1.938-15.203 0.4007-9.6568 0.4373-19.357 1.8078-28.924 0.7797-5.443 1.9882-10.819 2.7116-16.27 1.3507-10.177 0.9961-20.514 0-30.732-0.5623-5.7687-1.342-11.576-3.3556-17.011s-5.3673-10.525-10.202-13.721c-5.3501-3.5365-11.942-4.4598-18.078-6.3272-9.2947-2.829-18.067-8.216-23.501-16.27-0.78522-1.1637-1.4984-2.3775-2.3468-3.496-0.84844-1.1185-1.8482-2.1511-3.0764-2.8312-1.3442-0.74427-2.8999-1.031-4.4353-1.0901-1.5354-0.0591-3.0696 0.0981-4.6035 0.18618-9.2961 0.53401-18.67-1.5032-27.116-5.4233-7.1424-3.315-13.884-8.0258-21.693-9.0388-5.7383-0.74444-11.516 0.59429-17.174 1.8078-9.5486 2.048-19.188 3.7646-28.924 4.5194-9.9719 0.77301-20.101 0.52159-29.828-1.8078-11.065-2.6499-21.299-7.8983-31.636-12.654-6.9802-3.2117-14.067-6.2218-20.789-9.9427-3.267-1.8082-6.4533-3.7868-9.8896-5.2479-3.4363-1.461-7.1884-2.3951-10.9-1.9832-3.1732 0.35219-6.1638 1.6677-8.9464 3.2331-2.7827 1.5654-5.413 3.3941-8.2273 4.9018-11.171 5.9845-24.387 6.5208-37.059 6.3272-10.643-0.16268-21.382-0.76142-31.636-3.6155-10.25-2.8529-20.094-7.9614-30.732-8.1349-10.129-0.16524-19.774 4.1825-29.828 5.4233-14.739 1.8191-29.448-3.0942-44.29-3.6155-9.9468-0.34941-19.957 1.2772-29.828 0-8.4792-1.0972-16.788-4.3258-25.309-3.6155-5.6266 0.46909-10.948 2.6338-16.27 4.5194-11.678 4.1376-23.795 7.0329-35.251 11.75-10.843 4.4649-20.963 10.508-31.636 15.366-13.064 5.9459-27.271 10.31-37.963 19.885-11.881 10.64-17.923 26.416-28.924 37.963-3.1255 3.2806-6.6314 6.1966-9.5834 9.6342-2.952 3.4376-5.3783 7.5458-5.7825 12.059-0.40803 4.5557 1.2626 9.0168 1.8078 13.558 0.54053 4.5028-0.0305 9.0556-0.56397 13.559-0.53346 4.5036-1.0288 9.0747-0.33991 13.557 0.94947 6.1776 4.0775 11.777 7.231 17.174 4.3033 7.3636 8.7601 14.642 13.558 21.693 3.9823 5.8524 8.2426 11.595 13.558 16.27 5.6354 4.9561 12.492 8.6519 19.885 9.9427 6.8606 1.1978 13.985 0.32258 20.789 1.8078 8.9239 1.9478 16.457 7.743 23.501 13.558 2.9582 2.4422 5.9026 4.9266 9.1688 6.9383 3.2662 2.0118 6.8973 3.5489 10.716 3.9082 4.1318 0.38869 8.2843-0.61565 12.158-2.1055 3.8734-1.4899 7.5409-3.4626 11.343-5.1255z" fill="#0fc" opacity=".3"/>
  <path id="HP" d="m413.07 442.9c4.4191 9.8803 11.843 18.313 20.789 24.405 5.258 3.5805 11.057 6.387 17.174 8.1349 1.6025 0.45795 3.2654 0.8464 4.9227 0.67035 0.82867-0.088 1.6477-0.3202 2.3716-0.73299 0.72391-0.4128 1.3499-1.0111 1.7445-1.7451 0.36313-0.67547 0.52322-1.4516 0.50593-2.2183-0.0173-0.7667-0.20787-1.5242-0.51032-2.229-0.60491-1.4095-1.637-2.589-2.7072-3.6877-3.4234-3.5142-7.3949-6.4562-10.847-9.9427-2.896-2.9252-5.4244-6.244-7.231-9.9427-2.0637-4.2251-3.1531-8.8788-3.6155-13.558-1.3675-13.837 2.7285-27.884 9.9426-39.771 7.0165-11.561 16.891-21.241 28.02-28.924 12.455-8.5983 26.438-14.75 40.674-19.885 13.632-4.917 27.569-8.9461 41.578-12.654 19.832-5.2494 40.045-9.8895 60.56-9.9426 15.12-0.0392 30.122 2.4152 45.194 3.6155 14.446 1.1504 28.978 1.1495 43.386 2.7116 16.524 1.7916 32.759 5.6258 48.809 9.9427 16.11 4.3329 32.087 9.1611 47.906 14.462 15.451 5.1777 30.746 10.805 46.098 16.27 13.376 4.7615 26.94 9.47 38.867 17.174 12.037 7.7754 21.984 18.331 31.636 28.924 13.835 15.185 27.793 31.535 32.54 51.521 2.6603 11.201 2.2384 22.912 0.90388 34.347-0.69055 5.9172-1.666 11.944-4.5194 17.174-2.8763 5.2716-7.4531 9.3634-11.75 13.558-3.3785 3.2979-6.6663 6.7647-9.0388 10.847-3.1878 5.4846-4.6157 11.896-8.1349 17.174-4.1826 6.273-10.872 10.323-17.174 14.462-12.369 8.1235-24.053 17.345-37.059 24.405-12.265 6.6572-25.521 11.288-38.867 15.366-13.64 4.1681-27.478 7.7972-41.578 9.9427-13.149 2.0007-26.47 2.7022-39.771 2.7116-12.102 9e-3 -24.246-0.55841-36.155-2.7116-7.1438-1.2916-14.353-3.1602-21.563-2.3134-3.605 0.42341-7.1714 1.5522-10.155 3.6191-2.9838 2.0669-5.3506 5.1189-6.2442 8.637-0.58247 2.2931-0.53118 4.7329 0.063 7.023 0.59416 2.2901 1.7232 4.4301 3.2104 6.2701 2.9745 3.68 7.3136 6.0941 11.875 7.3528 9.1228 2.5172 18.788 0.65621 28.238 0.14332 19.611-1.0644 39.113 3.7746 58.752 3.6155 23.587-0.19108 46.648-7.6197 67.791-18.078 15.31-7.5728 29.808-16.753 43.386-27.116 9.8528-7.5202 19.229-15.667 28.02-24.405 7.123-7.0792 13.87-14.555 19.885-22.597 7.6601-10.24 14.099-21.347 21.693-31.636 3.7276-5.0503 7.7352-9.9058 11.102-15.204 3.3665-5.2979 6.1037-11.12 6.9759-17.336 1.0542-7.5137-0.65723-15.097-1.8078-22.597-1.7693-11.533-2.2585-23.412-6.3272-34.347-5.3719-14.438-16.497-25.931-28.02-36.155-16.668-14.788-34.83-27.912-54.233-38.867-19.527-11.025-40.256-19.829-61.464-27.116-30.916-10.624-62.842-18.042-94.907-24.405-28.044-5.5652-56.378-10.351-84.965-10.847-32.155-0.55707-64.146 4.3211-95.811 9.9427-24.124 4.2828-48.497 9.1118-70.502 19.885-16.514 8.0851-31.438 19.468-43.386 33.443-9.3844 10.977-17.031 23.806-19.885 37.963-2.3725 11.766-1.2853 24.294 3.6155 35.251z" fill="#4aff00" opacity=".3"/>
 </g>
</svg>
